<?xml version='1.0' encoding='utf-8'?>
<svg xmlns="http://www.w3.org/2000/svg" width="647.38879mm" height="517.69977mm" viewBox="0 0 647.38879 517.69977" version="1.1" id="svg5" xml:space="preserve"><defs id="defs2" /><g id="layer1"><path style="fill:#000000;stroke-width:1" d="m 266.41499999999724 516.7070000000003 c -2.316,-1.053 -5.011,-3.807 -5.83,-5.951 -0.394,-1.051 -1.024,-1.273 -4.522,-1.593 -14.906,-1.357 -21.807,-3.957 -24.911,-9.363 -1.245,-2.154 -1.67,-3.608 -1.67,-5.694 0,-3.407 0.993,-5.466 5.121,-10.58 4.396,-5.432 9.737,-14.099 14.559,-23.583 5.026,-9.859 9.375,-19.486 8.997,-19.867 -0.442,-0.441 -7.595,-1.083 -7.831,-0.703 -0.158,0.187 -2.112,5.08 -4.444,10.872 -6.507,16.155 -10.714,23.348 -18.34,31.303 -9.47,9.887 -22.957,16.193 -34.617,16.193 -1.78,0 -5.609,0.518 -8.493,1.152 -10.793,2.363 -16.875,0.953 -19.758,-4.585 -0.662,-1.275 -1.229,-1.535 -3.971,-1.82 -15.252,-1.581 -19.033,-2.573 -22.72,-5.98 -1.812,-1.662 -2.679,-3.038 -3.309,-5.188 -1.324,-4.574 -0.631,-6.418 5.546,-14.632 9.58,-12.769 17.363,-27.567 24.139,-45.971 l 1.654,-4.485 -1.575,-2.334 c -0.867,-1.284 -2.522,-4.188 -3.687,-6.454 l -2.112,-4.117 -3.356,-0.37 c -6.381,-0.704 -17.915,-3.027 -24.517,-4.932 -17.316,-5.004 -32.364,-13.637 -43.929,-25.21 -11.659,-11.652 -18.655,-23.71 -22.453,-38.715 l -1.528,-6.058 -4.38,-1.27 c -18.75,-5.446 -31.702,-12.111 -39.974,-20.57 -7.248,-7.409 -16.686,-23.181 -18.152,-30.316 -0.567,-2.803 -0.504,-3.493 0.599,-6.669 0.694,-1.949 1.182,-4.168 1.087,-4.934 -0.157,-0.764 -0.157,-4.014 -0.157,-7.226 0.189,-10.175 3.072,-17.926 11.266,-30.17 8.098,-12.118 11.628,-14.634 23.918,-17.072 7.437,-1.478 7.642,-1.56 11.124,-4.357 6.57,-5.292 15.614,-8.007 22.626,-6.784 4.128,0.716 10.336,3.381 14.386,6.163 l 2.631,1.809 3.939,-1.049 c 4.932,-1.311 10.84,-1.343 14.512,-0.08 1.528,0.528 4.128,1.985 5.782,3.241 1.655,1.254 4.522,2.778 6.382,3.386 17.284,5.677 29.7,20.734 36.586,44.378 l 1.859,6.367 2.852,0.761 c 2.742,0.736 2.962,0.708 6.098,-0.806 2.836,-1.368 4.049,-1.598 9.485,-1.794 l 6.24,-0.223 1.906,-2.335 1.923,-2.335 -2.978,-2.298 c -9.454,-7.312 -15.977,-23.037 -19.538,-47.108 -1.403,-9.442 -1.403,-31.554 0,-41.967 1.213,-9.048 4.632,-26.84 5.609,-29.172 2.647,-6.304 10.068,-9.249 16.245,-6.446 1.26,0.574 4.884,3.394 8.051,6.267 13.346,12.094 21.492,18.512 31.639,24.923 5.231,3.304 6.161,3.73 5.814,2.653 -6.554,-20.254 -5.058,-44.798 4.443,-73.542 7.942,-23.994 19.428,-45.3 36.76,-68.144 6.523,-8.612 8.934,-10.585 13.377,-10.957 4.743,-0.397 6.681,0.237 9.549,3.125 2.08,2.086 3.072,3.819 5.01,8.718 2.773,7.018 10.825,23.344 16.718,33.906 5.546,9.944 13.33,22.987 13.944,23.36 0.268,0.169 1.355,-1.391 2.395,-3.466 10.21,-20.178 31.797,-48.216 48.75,-63.282 12.101,-10.765 15.174,-12.689 20.295,-12.727 4.348,-0.03 8.051,2.086 10.462,6.005 1.497,2.4 1.702,3.313 2.064,9.156 0.614,9.482 2.726,22.292 8.319,50.162 2.726,13.623 4.964,24.917 4.964,25.095 0,0.18 3.561,-2.338 7.925,-5.593 22.752,-16.962 46.623,-31.108 65.168,-38.621 9.549,-3.866 19.885,-7.044 22.895,-7.03 4.821,0.02 9.154,2.998 11.092,7.613 1.103,2.628 0.93,4.863 -0.898,12.148 -2.915,11.526 -8.13,45.053 -10.557,67.773 -0.614,5.81 -1.229,11.499 -1.355,12.646 -0.157,1.146 -0.157,2.085 0,2.085 0.158,0 1.465,-0.619 2.962,-1.377 7.169,-3.634 20.547,-8.285 31.151,-10.826 12.841,-3.081 28.314,-4.319 32.426,-2.597 2.884,1.204 5.767,4.07 6.791,6.755 1.418,3.724 0.867,6.896 -2.489,14.106 -4.648,10.025 -8.083,20.265 -14.228,42.576 -1.434,5.196 -3.467,12.294 -4.522,15.772 -1.04,3.477 -1.812,6.424 -1.686,6.547 0.157,0.126 3.324,-0.188 7.106,-0.689 11.25,-1.489 30.993,-0.428 36.35,1.954 4.664,2.066 7.185,5.901 7.185,10.878 0,2.953 -0.378,4.056 -3.199,9.632 -1.764,3.462 -4.79,10.09 -6.712,14.729 -8.225,19.689 -11.597,25.998 -17.631,32.981 -2.726,3.136 -2.884,3.013 5.798,4.302 9.454,1.404 21.271,2.113 28.456,1.705 7.626,-0.432 10.084,0.03 13.519,2.51 2.852,2.067 4.554,5.275 4.554,8.607 0,4.666 -9.769,21.532 -19.806,34.203 -5.09,6.419 -21.965,23.166 -29.055,28.818 -11.14,8.882 -32.222,23.006 -36.271,24.29 -0.615,0.197 -1.119,1.091 -1.339,2.368 -2.537,14.917 -6.445,27.951 -11.172,37.26 l -2.978,5.859 1.655,16.987 c 0.914,9.344 1.938,21.654 2.269,27.357 0.85,14.625 0.378,15.929 -7.106,19.796 -7.91,4.087 -9.249,4.319 -21.193,3.641 -8.556,-0.487 -10.919,-0.806 -13.109,-1.771 -1.891,-0.838 -3.262,-1.082 -4.727,-0.847 -2.568,0.411 -13.519,-1.11 -18.372,-2.551 -1.985,-0.59 -4.412,-1.667 -5.404,-2.394 l -1.781,-1.32 -3.892,0.988 c -9.312,2.366 -13.818,1.834 -17.221,-2.036 -2.821,-3.213 -3.199,-5.534 -2.112,-12.977 1.985,-13.637 5.074,-23.337 11.597,-36.392 2.442,-4.926 3.655,-7.935 3.34,-8.339 -1.008,-1.292 -4.995,-12.506 -6.491,-18.254 l -1.529,-5.952 -3.403,3.088 c -5.672,5.151 -20.452,15.763 -23.651,16.976 -0.252,0.09 -0.74,5.338 -1.071,11.645 -0.945,17.481 -3.151,30.666 -6.145,36.517 -3.135,6.153 -10.478,10.159 -21.618,11.788 -5.042,0.737 -8.004,0.189 -10.556,-1.96 -1.608,-1.344 -1.686,-1.354 -10.006,-1.012 -9.643,0.396 -11.896,-0.11 -15.126,-3.446 -1.213,-1.251 -2.395,-1.939 -3.34,-1.939 -2.899,0 -16.938,-2.871 -19.554,-3.996 -2.6,-1.117 -6.003,-4.281 -6.003,-5.584 0,-1.656 -1.15,0.925 -3.025,6.797 -2.254,7.043 -5.121,13.158 -8.509,18.144 -2.883,4.241 -10.635,11.637 -14.89,14.226 -7.704,4.67 -18.151,7.491 -25.683,6.93 -2.82,-0.21 -5.562,0.02 -9.17,0.761 -6.586,1.358 -11.675,1.369 -14.622,0.03 z m 11.675,-14.805 c 3.026,-0.767 5.625,-1.512 5.767,-1.654 0.63,-0.632 -1.828,-5.392 -3.577,-6.928 -3.482,-3.055 -4.726,-2.184 -7.169,4.977 -1.497,4.42 -1.607,5.003 -0.961,5.003 0.237,0 2.915,-0.629 5.94,-1.398 z m 20.83,-0.08 c 10.242,-2.825 19.428,-10.724 24.47,-21.031 2.174,-4.466 4.995,-13.516 8.304,-26.681 1.938,-7.701 6.223,-27.104 6.034,-27.282 0,-0.06 -1.89,0.224 -4.033,0.643 -2.127,0.421 -4.633,0.63 -5.547,0.466 -4.128,-0.739 -7.626,-2.771 -8.855,-5.136 l -0.756,-1.486 9.816,0.191 c 7.437,0.141 10.289,0 11.707,-0.575 l 1.875,-0.766 -1.764,-2.004 c -0.962,-1.102 -2.632,-2.417 -3.687,-2.923 -2.175,-1.032 -4.979,-0.723 -12.227,1.352 -5.153,1.474 -8.588,1.454 -10.526,-0.06 -0.819,-0.646 -1.418,-1.538 -1.323,-1.981 0.189,-0.881 9.312,-4.675 14.622,-6.084 2.221,-0.587 4.711,-0.797 7.437,-0.627 l 4.081,0.257 -0.268,-16.178 c -0.221,-13.212 -0.489,-17.403 -1.466,-22.85 -2.867,-16.16 -8.303,-32.136 -14.306,-42.135 -4.318,-7.173 -6.807,-9.888 -15.489,-16.81 -1.056,-0.846 -1.008,-0.874 0.961,-0.608 5.405,0.732 13.362,5.516 18.876,11.362 5.783,6.132 10.242,14.71 13.504,25.977 0.787,2.703 1.528,5.011 1.638,5.127 0.662,0.665 1.891,-9.43 2.332,-19.233 0.221,-4.707 0.599,-8.263 0.867,-7.998 0.851,0.85 3.151,12.469 3.781,19.076 0.741,7.705 0.158,15.425 -2.032,24.829 -1.15,5.036 -1.34,6.974 -1.024,9.926 0.204,2.019 0.567,3.456 0.787,3.193 1.056,-1.266 4.601,-9.91 5.862,-14.307 0.788,-2.715 1.78,-7.801 2.206,-11.302 0.441,-3.503 0.914,-6.501 1.087,-6.664 1.008,-1.016 2.048,12.7 1.418,18.796 -0.898,8.682 -3.498,17.754 -6.665,23.176 -1.859,3.185 -1.639,4.719 3.23,22.896 0.441,1.683 0.898,3.137 0.977,3.235 0.158,0.09 2.285,-1.184 4.853,-2.846 4.995,-3.222 10.541,-7.672 15.284,-12.246 1.591,-1.544 3.056,-2.66 3.23,-2.478 0.394,0.389 -1.938,5.12 -4.475,9.107 -2.474,3.863 -8.146,9.84 -12.448,13.095 -3.955,3.005 -3.797,3.216 1.214,1.536 7.941,-2.658 15.394,-8.207 28.597,-21.258 5.578,-5.512 10.305,-9.869 10.478,-9.679 0.599,0.587 -4.774,10.153 -8.398,14.978 -1.906,2.536 -5.562,6.843 -8.114,9.57 -4.034,4.305 -4.444,4.905 -3.057,4.558 10.021,-2.513 24.58,-15.784 37.311,-33.974 2.348,-3.364 4.475,-6.488 4.743,-6.943 1.166,-2.099 0.992,0.275 -0.347,4.503 -2.032,6.439 -6.003,14.122 -10.966,21.2 -2.316,3.287 -4.081,5.975 -3.924,5.975 0.158,0 1.686,-0.905 3.435,-2.012 7.028,-4.459 15.063,-14.367 22.721,-28.021 1.717,-3.067 3.372,-5.731 3.687,-5.923 1.654,-1.023 -1.954,12.253 -5.215,19.226 -1.198,2.573 -2.08,4.785 -1.954,4.916 0.425,0.416 4.396,-4.236 7.169,-8.381 3.971,-5.951 8.43,-15.353 10.966,-23.118 3.073,-9.397 3.278,-9.624 3.293,-3.591 0,6.301 -1.197,13.51 -3.324,19.628 -0.914,2.576 -1.544,4.776 -1.434,4.888 0.299,0.305 2.143,-3.038 3.829,-6.968 1.575,-3.651 3.923,-12.358 4.585,-16.919 0.221,-1.451 0.567,-2.639 0.788,-2.639 0.819,0 1.67,2.883 2.269,7.616 0.331,2.673 0.677,4.94 0.772,5.038 0.157,0.09 0.488,-2.772 0.866,-6.377 2.112,-20.42 8.304,-44.912 15.032,-59.474 2.426,-5.252 6.665,-12.361 8.051,-13.513 1.324,-1.093 1.671,-0.175 0.71,1.839 -2.348,4.929 -6.571,23.431 -8.73,38.189 -2.615,17.927 -3.056,23.732 -3.056,41.133 0,14.941 0.157,17.778 1.197,23.901 1.355,7.782 2.316,10.864 5.609,17.961 5.767,12.419 12.054,18.213 21.224,19.533 3.388,0.489 9.375,-1.122 17.001,-4.569 7.721,-3.49 8.005,-3.586 8.005,-2.721 0,1.278 -3.104,5.604 -5.783,8.061 -4.711,4.319 -11.943,6.685 -18.088,5.919 -1.686,-0.211 -5.814,-1.359 -9.155,-2.551 -6.696,-2.391 -8.083,-2.573 -10.005,-1.312 -1.591,1.038 -5.184,6.117 -7.264,10.232 -1.796,3.556 -5.262,11.702 -4.994,11.702 0.157,0 0.882,-0.26 1.717,-0.578 2.3,-0.879 4.727,-0.08 6.949,2.324 l 2.001,2.16 3.75,-1.752 c 5.325,-2.494 10.178,-2.798 14.322,-0.901 1.67,0.766 4.27,2.575 5.767,4.018 l 2.726,2.625 1.654,-0.974 c 4.223,-2.463 5.105,-2.74 8.619,-2.716 2.994,0.02 4.207,0.34 7.043,1.851 3.593,1.921 10.967,7.841 11.502,9.241 0.694,1.808 1.403,0.706 1.166,-1.818 -0.504,-5.471 -1.969,-20.05 -2.473,-24.596 -0.3,-2.598 -0.914,-9.126 -1.387,-14.507 l -0.851,-9.781 2.521,-4.949 c 5.783,-11.334 8.871,-25.951 10.368,-49.143 1.323,-20.671 -1.261,-46.445 -6.807,-67.809 -6.271,-24.185 -15.945,-43.541 -32.222,-64.507 -18.309,-23.604 -35.814,-39.504 -57.4,-52.152 -19.648,-11.518 -44.417,-18.947 -77.364,-23.215 -10.005,-1.297 -31.308,-1.299 -41.077,0 -31.15,4.123 -58.425,16.49 -82.595,37.465 -8.051,6.971 -22.673,21.889 -29.212,29.786 -2.742,3.312 -8.651,11.02 -13.125,17.127 -4.475,6.107 -9.423,12.564 -10.967,14.346 l -2.82,3.243 2.41,1.978 c 3.294,2.696 7.311,8.752 8.934,13.435 1.497,4.343 2.348,9.173 1.623,9.132 -0.268,-0.02 -1.355,-1.421 -2.426,-3.124 -5.294,-8.425 -18.309,-16.94 -25.904,-16.94 -2.663,0 -6.901,0.911 -6.901,1.483 0,0.11 1.213,1.798 2.679,3.744 3.655,4.824 4.285,7.344 4.222,16.809 0,8.662 -1.103,14.352 -4.081,22.512 -2.694,7.388 -3.592,8.202 -2.741,2.501 0.914,-6.203 0.725,-22.336 -0.315,-27.199 -1.623,-7.494 -4.223,-11.6 -9.486,-14.921 -4.443,-2.803 -4.49,-2.772 -5.231,3.058 -0.977,7.696 -2.726,14.572 -5.105,20.124 -2.678,6.229 -4.081,7.954 -2.899,3.564 1.481,-5.541 1.56,-14.344 0.205,-23.258 -3.183,-20.856 -9.675,-38.067 -17.616,-46.643 -1.985,-2.143 -4.569,-4.658 -5.735,-5.588 l -2.143,-1.69 v 3.209 c 0,1.767 -0.284,4.258 -0.615,5.537 -0.614,2.238 -2.993,5.71 -3.939,5.71 -0.898,0 -1.67,-3.591 -1.67,-7.775 0,-3.658 -0.236,-4.768 -1.702,-7.679 -3.466,-6.931 -11.124,-10.394 -18.576,-8.404 -1.229,0.326 -5.357,2.056 -9.186,3.845 -8.209,3.843 -10.51,4.413 -12.542,3.086 -0.772,-0.512 -1.34,-1.147 -1.245,-1.412 0.157,-0.266 2.158,-1.778 4.601,-3.364 5.152,-3.356 5.31,-2.949 -2.679,-6.954 -7.642,-3.839 -11.455,-3.185 -18.388,3.154 l -3.182,2.906 -6.76,0.98 c -10.241,1.484 -13.834,2.782 -17.568,6.343 -3.876,3.717 -9.801,13.09 -11.802,18.734 -0.851,2.362 -1.796,6.358 -2.111,8.881 -1.009,7.966 -1.355,7.202 5.404,11.611 6.965,4.548 18.404,10.295 25.148,12.627 6.507,2.251 11.707,3.077 17.552,2.784 4.27,-0.214 5.704,-0.567 10.368,-2.573 2.978,-1.28 5.688,-2.327 6.003,-2.327 1.213,0 3.309,2.749 3.309,4.326 0,2.039 2.757,6.216 4.963,7.511 3.734,2.2 9.753,1.811 19.806,-1.285 6.429,-1.978 7.831,-2.044 9.533,-0.449 0.961,0.909 1.292,1.838 1.307,3.751 0,1.399 0.252,3.794 0.505,5.323 0.646,3.814 -0.237,7.69 -2.317,10.049 -0.914,1.046 -1.827,1.902 -2.048,1.902 -0.205,0 -0.693,-2.05 -1.087,-4.557 -0.394,-2.507 -1.04,-5.338 -1.434,-6.294 l -0.741,-1.738 -6.034,1.542 c -6.996,1.787 -13.472,2.058 -17.868,0.752 -3.246,-0.966 -8.146,-5.072 -9.879,-8.288 -0.757,-1.398 -1.324,-1.892 -1.923,-1.639 -6.554,2.83 -17.316,3.435 -25.572,1.437 -9.501,-2.303 -19.601,-6.688 -30.237,-13.147 -3.324,-2.021 -6.145,-3.578 -6.255,-3.462 -0.457,0.461 4.932,10.302 7.516,13.716 3.734,4.935 12.227,12.993 17.489,16.598 9.092,6.237 21.949,11.494 34.271,14.033 4.096,0.843 8.918,1.303 16.134,1.544 l 10.273,0.342 -1.717,1.672 c -3.514,3.414 -12.574,6.943 -17.821,6.943 -3.088,0 -2.111,0.914 2.915,2.733 2.616,0.95 5.42,2.065 6.208,2.481 l 1.45,0.757 -1.355,0.729 c -0.741,0.402 -3.419,0.84 -5.94,0.975 -2.521,0.142 -4.585,0.453 -4.585,0.702 0,1.177 2.725,3.406 4.726,3.868 1.229,0.283 5.074,0.52 8.54,0.528 5.704,0 6.256,0.1 5.594,0.89 -1.591,1.93 -6.287,3.739 -10.383,4.007 -2.206,0.141 -4.034,0.475 -4.034,0.734 0,0.89 2.584,2.154 5.593,2.741 1.671,0.325 6.965,0.587 11.786,0.58 4.806,0 8.761,0.197 8.761,0.453 0,0.68 -3.782,3.163 -6.886,4.536 -2.001,0.879 -3.955,1.218 -7.374,1.278 -4.932,0.08 -5.704,0.611 -3.12,2.12 3.735,2.178 10.762,1.705 21.618,-1.451 3.671,-1.065 6.319,-1.588 6.319,-1.246 0,0.325 -1.293,1.782 -2.868,3.241 -3.435,3.173 -9.69,6.361 -13.535,6.895 -1.528,0.211 -3.088,0.55 -3.466,0.75 -0.93,0.5 4.411,3.944 6.696,4.305 3.514,0.556 13.173,-3.241 24.407,-9.604 6.98,-3.955 7.2,-3.255 1.024,3.263 -4.963,5.257 -9.454,7.945 -16.087,9.654 -2.175,0.561 -3.955,1.176 -3.955,1.368 0,0.78 4.963,2.302 8.398,2.581 7.784,0.63 17.285,-4.045 30.883,-15.208 3.119,-2.554 5.814,-4.644 5.987,-4.644 1.733,0 -5.026,10.24 -9.785,14.799 -4.916,4.703 -9.784,7.014 -18.151,8.596 -1.922,0.366 -3.293,0.847 -3.057,1.07 0.599,0.53 8.13,2.772 9.328,2.772 1.607,0 9.154,-3.766 14.133,-7.046 6.524,-4.31 14.748,-12.771 21.114,-21.743 2.868,-4.036 5.42,-7.341 5.688,-7.341 0.662,0 -1.639,5.96 -4.506,11.673 -6.051,12.072 -12.999,19.268 -23.903,24.759 -3.892,1.96 -4.065,2.126 -2.678,2.507 0.819,0.224 2.962,0.58 4.79,0.791 3.009,0.348 3.608,0.225 6.838,-1.402 8.76,-4.401 16.843,-10.845 28.283,-22.541 4.994,-5.088 7.563,-7.365 7.689,-6.774 0.205,1.109 -4.286,10.142 -7.28,14.611 -3.056,4.569 -11.029,12.262 -15.851,15.285 -2.19,1.376 -3.986,2.644 -3.986,2.818 0,0.174 1.796,0.09 4.018,-0.193 5.357,-0.676 12.605,-3.447 17.442,-6.663 5.184,-3.448 13.125,-11.794 20.263,-21.303 3.545,-4.722 5.846,-7.339 5.956,-6.783 0.283,1.483 -4.664,13.12 -7.737,18.215 -2.662,4.381 -7.389,10.485 -9.375,12.085 -1.465,1.178 3.609,0.846 14.528,-0.955 5.562,-0.917 10.494,-1.667 10.95,-1.667 2.395,0 -7.405,7.117 -12.825,9.304 -5.94,2.403 -11.55,3.553 -18.924,3.881 -3.892,0.173 -7.074,0.466 -7.074,0.652 0,0.186 1.938,1.155 4.301,2.156 4.979,2.098 7.532,2.253 15.694,0.942 8.382,-1.343 19.065,-4.576 33.088,-10.006 2.001,-0.778 -1.922,2.955 -6.539,6.223 -6.791,4.802 -12.574,6.69 -24.879,8.141 l -5.83,0.687 1.576,1.057 c 2.221,1.492 6.381,1.685 13.582,0.629 8.492,-1.246 16.166,-3.63 25.572,-7.944 4.365,-2.005 8.067,-3.519 8.225,-3.366 0.158,0.158 -1.765,2.195 -4.254,4.536 -7.059,6.646 -14.039,9.503 -25.935,10.631 -2.222,0.21 -4.034,0.583 -4.034,0.827 0,0.597 7.264,2.778 9.249,2.777 2.285,0 13.157,-3.008 17.71,-4.898 2.143,-0.888 6.319,-2.809 9.312,-4.266 l 5.421,-2.649 -1.214,-2.015 c -0.677,-1.108 -2.001,-3.263 -2.946,-4.793 -4.396,-7.1 -7.626,-15.982 -9.281,-25.568 -1.812,-10.51 -0.409,-20.231 3.908,-27.032 2.474,-3.904 2.994,-3.728 1.339,0.466 -1.355,3.439 -1.481,4.469 -1.512,11.558 0,8.781 0.693,12.365 3.828,19.002 1.954,4.117 5.231,9.008 6.067,9.046 0.267,0 0.299,-0.667 0.157,-1.507 -3.088,-12.058 -3.104,-21.661 0,-30.512 1.529,-4.473 3.151,-7.98 3.703,-7.98 0.205,0 0.394,4.564 0.41,10.144 0,13.534 1.481,22.103 6.286,37.103 1.718,5.338 7.957,20.883 10.809,26.883 1.828,3.857 4.9,6.363 10.116,8.255 1.906,0.693 3.466,1.415 3.466,1.602 0,0.19 -1.497,0.5 -3.34,0.692 -6.366,0.667 -9.422,3.194 -11.975,9.925 -4.979,13.13 -12.4,31.489 -14.638,36.172 -1.654,3.46 -2.284,5.291 -1.749,5.042 2.128,-0.974 6.145,-0.848 8.02,0.252 1.718,1.016 1.844,1.028 1.608,0.126 -0.284,-1.087 1.938,-6.684 2.647,-6.684 1.402,0 1.181,4.176 -0.41,7.593 -0.709,1.56 -0.709,1.948 0,3.449 l 0.882,1.693 2.285,-0.809 c 3.151,-1.112 4.758,-1.011 8.004,0.501 5.499,2.559 9.139,8.088 10.053,15.238 l 0.362,2.93 2.017,-0.334 c 1.103,-0.185 3.372,-0.711 5.026,-1.17 z m 9.438,-17.576 c -2.174,-1.464 -2.82,-3.176 -1.197,-3.176 4.79,0 11.203,-5.265 14.59,-11.977 1.072,-2.127 2.001,-3.969 2.08,-4.097 0,-0.126 0.3,-0.08 0.473,0.111 0.189,0.184 0,2.236 -0.52,4.558 -2.458,12.036 -9.422,18.629 -15.426,14.586 z m 202.58,-19.158 c 0.158,-0.84 0.441,-3.215 0.646,-5.274 0.552,-5.825 1.371,-5.097 1.371,1.212 0,5.292 0,5.592 -1.15,5.592 -0.961,0 -1.103,-0.26 -0.867,-1.53 z m -27.684,-1.193 c -0.394,-0.637 1.198,-9.846 1.954,-11.236 0.945,-1.782 1.15,-1.186 0.788,2.423 -0.741,7.403 -1.702,10.494 -2.742,8.813 z m 11.849,-32.472 c -6.113,-2.298 -11.392,-8.387 -10.935,-12.659 l 0.173,-1.635 3.057,2.53 c 6.019,4.984 11.754,6.9 20.751,6.925 4.759,0 4.712,0.733 -0.204,3.217 -4.27,2.153 -9.612,2.829 -12.842,1.622 z m 1.67,-11.676 c -4.427,-5.39 -9.721,-16.112 -11.691,-23.712 -1.56,-6.052 -1.544,-18.354 0,-18.354 0.221,0 0.441,2.064 0.473,4.586 0.157,9.382 3.387,20.098 9.863,32.517 1.954,3.745 3.388,6.791 3.167,6.769 -0.205,-0.02 -1.04,-0.835 -1.843,-1.806 z m -173.162,-20.184 c 3.797,-12.545 4.27,-19.397 2.19,-32.048 -1.072,-6.56 -0.505,-7.984 1.686,-4.202 2.505,4.32 3.403,8.464 3.356,15.48 0,5.234 -0.315,7.297 -1.529,11.395 -1.528,5.112 -3.907,9.719 -5.262,10.165 -0.52,0.171 -0.646,-0.08 -0.441,-0.79 z m 159.328,-37.167 c 0,-0.765 0.252,-1.39 0.567,-1.39 0.3,0 0.552,0.625 0.552,1.39 0,0.764 -0.252,1.389 -0.552,1.389 -0.315,0 -0.567,-0.625 -0.567,-1.389 z m 0.567,-9.728 c 0,-1.111 0.268,-1.667 0.835,-1.667 0.914,0 0.977,0.244 0.473,2.084 -0.473,1.803 -1.308,1.538 -1.308,-0.417 z m -161.676,-2.113 c -0.394,-0.705 -0.614,-1.705 -0.504,-2.224 0.157,-0.787 0.315,-0.731 0.898,0.336 0.394,0.704 0.614,1.705 0.504,2.223 -0.157,0.786 -0.315,0.731 -0.898,-0.335 z m -1.386,-9.946 c -0.536,-0.532 -0.442,-2.393 0.157,-2.393 0.646,0 1.198,2.144 0.646,2.485 -0.236,0.141 -0.583,0.11 -0.772,-0.09 z m -56.787,-53.504 c -5.987,-1.429 -9.69,-6.435 -9.705,-13.166 0,-2.669 0.315,-4.056 1.544,-6.381 1.623,-3.122 5.514,-6.605 7.374,-6.605 1.512,0 1.323,0.951 -0.883,4.421 -3.025,4.736 -2.568,9.268 1.151,11.727 3.482,2.287 9.044,0.67 11.738,-3.409 1.875,-2.832 2.379,-7.333 1.087,-9.812 -1.087,-2.125 -4.9,-4.04 -8.036,-4.04 -1.276,0 -2.316,-0.219 -2.316,-0.487 0,-0.531 4.349,-2.486 6.823,-3.07 1.969,-0.464 5.388,0.445 7.295,1.944 5.137,4.043 5.011,14.523 -0.252,21.862 -3.656,5.081 -10.73,8.226 -15.82,7.016 z m 240.569,-2.871 c -7.264,-1.322 -11.345,-7.564 -9.564,-14.631 1.623,-6.397 10.037,-10.344 13.613,-6.384 1.45,1.608 0.631,2.736 -2.001,2.736 -1.796,0 -2.647,0.356 -3.923,1.625 -3.86,3.86 0,10.041 6.224,10.046 4.979,0 6.759,-3.564 4.38,-8.814 -1.323,-2.905 -1.371,-3.413 -0.268,-3.413 1.387,0 5.168,4.24 5.877,6.585 2.19,7.301 -5.483,13.859 -14.338,12.25 z m -45.457,-7.946 c -7.878,-1.95 -13.566,-7.693 -14.685,-14.839 -1.276,-8.009 4.002,-18.889 10.73,-22.147 3.577,-1.73 8.745,-1.569 12.589,0.389 4.286,2.195 4.097,2.724 -0.977,2.709 -3.371,0 -4.837,0.252 -6.617,1.186 -6.508,3.4 -9.564,12.61 -6.334,19.059 4.569,9.101 15.031,11.663 21.444,5.247 4.711,-4.71 5.42,-11.628 1.985,-19.555 -1.953,-4.478 -2.079,-5.172 -0.976,-5.172 1.307,0 4.821,4.385 6.649,8.269 3.009,6.41 2.694,12.876 -0.883,18.205 -4.112,6.106 -13.786,8.914 -22.925,6.649 z m -148.945,-8.083 c -3.64,-2.401 -5.405,-7.772 -4.207,-12.781 1.402,-5.851 6.996,-10.853 9.989,-8.953 0.646,0.411 0.3,1.046 -1.764,3.263 -3.687,3.944 -4.066,7.617 -1.04,9.95 1.37,1.05 5.01,0.834 7.673,-0.457 7.358,-3.561 7.201,-12.055 -0.268,-13.935 -2.836,-0.712 -2.789,-1.644 0.158,-2.372 2.584,-0.653 6.728,0.356 8.587,2.086 2.285,2.135 3.009,4.159 2.773,7.834 -0.567,8.844 -8.351,16.456 -16.812,16.446 -2.411,0 -3.86,-0.313 -5.026,-1.081 z m -91.734,-3.512 c -6.381,-3.564 -6.176,-14.157 0.394,-21.12 2.064,-2.191 2.458,-2.358 3.718,-1.561 0.646,0.407 0.473,0.983 -0.913,3.188 -2.9,4.6 -3.294,7.747 -1.245,9.929 1.512,1.606 4.664,1.861 7.137,0.578 5.405,-2.793 9.06,-11.16 6.555,-14.99 -1.339,-2.045 -3.34,-2.679 -7.011,-2.23 l -3.089,0.38 1.056,-1.172 c 3.309,-3.709 10.021,-4.458 13.141,-1.466 2.284,2.194 2.962,4.701 2.6,9.576 -1.009,13.359 -13.441,23.869 -22.343,18.888 z m 135.505,-1.211 c -10.651,-3.328 -16.087,-13.927 -12.306,-24.008 1.986,-5.326 9.186,-11.72 11.061,-9.839 0.315,0.308 0,1.332 -0.898,2.588 -3.372,4.953 -3.955,10.533 -1.591,15.267 5.751,11.542 23.146,10.453 29.133,-1.824 1.954,-4.007 1.954,-10.116 0,-13.592 -2.915,-5.176 -9.091,-8.111 -16.229,-7.708 -3.293,0.186 -3.718,0.111 -2.867,-0.513 1.733,-1.259 6.365,-2.365 9.91,-2.365 9.58,0 17.191,5.855 17.915,13.757 0.851,9.411 -6.554,21.502 -15.961,26.069 -6.035,2.922 -13.078,3.762 -18.183,2.168 z m -258.074,-0.604 c -3.183,-0.989 -6.366,-3.614 -7.941,-6.566 -1.024,-1.925 -1.229,-3.198 -1.229,-7.674 v -5.367 l -2.584,-0.34 c -2.458,-0.328 -6.019,-2.208 -6.413,-3.379 -0.158,-0.33 1.245,-0.556 3.325,-0.556 3.671,0 4.238,-0.227 14.795,-5.874 7.122,-3.818 12.447,-2.229 16.812,5.019 2.647,4.415 3.451,7.079 3.451,11.475 0,2.674 -0.331,3.934 -1.497,5.928 -1.481,2.536 -4.428,4.853 -6.161,4.853 -0.804,0 -0.788,-0.19 0.22,-1.537 1.229,-1.668 2.348,-7.082 1.844,-8.989 -0.284,-1.088 -0.473,-0.997 -2.3,1.133 -2.427,2.836 -5.61,4.362 -9.171,4.377 -2.852,0 -4.333,-0.545 -6.349,-2.377 -2.395,-2.183 -1.387,0.446 1.323,3.469 2.458,2.728 5.499,4.724 8.54,5.605 l 1.387,0.402 -1.56,0.625 c -1.986,0.793 -3.356,0.745 -6.492,-0.227 z m 9.753,-17.187 c 2.238,-2.247 1.797,-5.875 -0.898,-7.27 -1.938,-0.999 -3.766,-0.421 -5.452,1.721 -1.496,1.898 -1.496,3.58 0,5.45 1.545,1.966 4.46,2.012 6.382,0.09 z m 310.968,8.581 c -8.366,-3.908 -10.856,-13.884 -5.136,-20.579 2.347,-2.744 4.711,-3.869 8.099,-3.869 2.993,0 5.829,1.85 4.774,3.115 -0.347,0.427 -1.371,0.777 -2.269,0.777 -2.033,0 -4.696,1.341 -5.452,2.748 -0.315,0.588 -0.567,2.192 -0.567,3.564 0,4.303 3.734,7.584 8.634,7.584 5.137,0 7.311,-4.719 4.743,-10.354 -0.567,-1.262 -1.308,-2.464 -1.654,-2.672 -1.135,-0.701 -0.646,-1.982 0.74,-1.982 1.781,0 4.443,2.3 6.287,5.453 3.214,5.498 1.213,11.91 -4.774,15.281 -4.034,2.269 -9.722,2.664 -13.425,0.934 z m -368.179,-3.366 c -2.852,-2.243 -1.592,-7.589 2.521,-10.67 2.931,-2.199 4.128,-2.354 5.735,-0.743 1.623,1.624 1.733,3.041 0.52,6.614 -0.993,2.937 -4.049,5.951 -6.003,5.951 -0.725,0 -1.97,-0.518 -2.773,-1.152 z m 65.294,-16.413 c -1.355,-1.733 -2.095,-5.074 -1.292,-5.88 0.867,-0.864 2.443,1.879 2.773,4.832 0.158,1.373 0.158,2.494 0,2.494 -0.173,0 -0.819,-0.65 -1.449,-1.446 z m -86.203,0.331 c -0.74,-0.465 -0.74,-0.698 0,-2.063 0.993,-1.797 2.616,-2.306 3.12,-0.983 0.504,1.311 -2.017,3.755 -3.136,3.046 z m 77.585,-8.301 c -1.97,-1.298 -2.663,-2.423 -2.206,-3.598 0.851,-2.236 5.215,0.312 5.215,3.049 0,1.906 -0.756,2.043 -3.009,0.549 z m 161.707,-9.405 c -2.505,-1.542 -3.482,-2.87 -4.254,-5.782 -0.567,-2.1 -0.567,-3.151 0,-5.194 1.245,-4.654 5.594,-9.668 8.383,-9.668 1.575,0 1.465,1.193 -0.284,2.821 -1.796,1.678 -3.561,5.043 -3.561,6.797 0,3.511 4.617,4.242 8.43,1.336 6.113,-4.661 6.444,-10.084 0.724,-12.148 -2.442,-0.885 -2.442,-1.439 0,-1.9 3.152,-0.593 5.578,0.157 7.453,2.297 2.458,2.802 2.474,6.471 0,11.72 -1.922,4.164 -5.262,7.623 -9.107,9.408 -3.435,1.606 -5.625,1.692 -7.862,0.313 z m 41.755,-5.897 c -4.191,-1.492 -8.099,-5.589 -9.233,-9.679 -2.332,-8.4 2.647,-16.597 11.848,-19.519 3.451,-1.092 3.876,0.06 1.04,2.798 -5.971,5.734 -6.082,12.512 -0.268,16.428 6.886,4.643 21.067,-1.381 23.477,-9.97 0.899,-3.182 0.363,-5.5 -1.827,-7.991 -2.175,-2.488 -4.648,-3.561 -9.265,-4.034 l -3.608,-0.37 2.221,-0.997 c 2.978,-1.343 7.658,-1.701 11.581,-0.886 2.537,0.528 3.735,1.16 5.625,2.984 3.12,2.997 4.081,6 3.23,10.047 -1.039,4.986 -2.883,8.146 -7.342,12.567 -4.428,4.409 -10.037,7.7 -15.047,8.841 -3.514,0.802 -9.88,0.69 -12.432,-0.219 z m 105.536,-1.38 c -6.633,-1.658 -10.777,-5.778 -11.723,-11.657 -0.945,-5.874 4.065,-11.16 10.573,-11.16 1.292,0 2.805,0.343 3.372,0.762 0.977,0.717 0.914,0.848 -1.213,2.187 -5.027,3.174 -5.941,6.508 -2.648,9.616 2.569,2.424 5.263,3.177 10.431,2.915 4.538,-0.228 6.586,-1.216 8.115,-3.899 1.827,-3.221 -2.159,-8.287 -8.052,-10.217 -1.812,-0.597 -3.309,-1.336 -3.293,-1.642 0,-0.74 7.043,-0.509 9.643,0.319 3.388,1.071 7.027,3.701 8.319,5.998 1.403,2.515 1.592,6.079 0.426,8.343 -0.946,1.817 -4.585,5.222 -6.838,6.386 -4.207,2.17 -12.59,3.175 -17.112,2.049 z m -148.126,286.413 c 0,-1.202 -2.41,-8.958 -3.056,-9.821 -0.725,-0.985 -0.946,-0.939 -4.838,1.032 -2.221,1.134 -4.301,2.261 -4.616,2.502 -0.3,0.243 -2.159,1.25 -4.097,2.238 -2.458,1.238 -3.325,1.928 -2.789,2.216 0.426,0.232 3.53,0.716 6.886,1.077 3.372,0.36 6.617,0.729 7.232,0.821 2.285,0.337 5.278,0.3 5.278,-0.06 z m -85.195,-11.357 c 5.342,-1.455 6.256,-1.929 6.256,-3.215 0,-1.129 -2.427,-4.942 -3.813,-6.006 -0.504,-0.376 -1.592,-0.693 -2.427,-0.704 -1.891,-0.02 -2.82,1.404 -3.75,5.819 -0.378,1.835 -0.929,3.773 -1.197,4.307 -0.662,1.253 -0.363,1.24 4.931,-0.201 z m 351.998,0.126 c 0,-0.271 -1.638,-2.023 -3.64,-3.894 -3.466,-3.242 -8.177,-6.176 -9.91,-6.176 -1.434,0 -2.569,1.683 -2.569,3.796 0,1.126 -0.236,2.859 -0.52,3.85 -0.456,1.608 -0.378,1.831 0.694,2.074 3.261,0.733 15.945,1.01 15.945,0.35 z m -333.578,-1.191 c 10.304,-2.857 18.183,-8.93 24.832,-19.129 2.647,-4.063 8.036,-14.458 8.036,-15.507 0,-0.495 -3.136,-2.036 -4.144,-2.036 -0.473,0 -0.867,0.394 -0.867,0.873 0,1.606 -3.482,9.37 -5.893,13.141 -2.521,3.926 -5.846,6.791 -8.587,7.396 -1.891,0.416 -4.617,-0.93 -5.94,-2.928 -0.804,-1.197 -0.772,-1.251 0.772,-1.255 2.552,0 7.059,-2.427 8.918,-4.784 2.174,-2.768 4.806,-7.996 5.956,-11.849 0.488,-1.661 0.882,-3.077 0.882,-3.148 0,-0.08 -1.686,-1.065 -3.75,-2.209 -5.704,-3.165 -16.891,-10.383 -24.202,-15.627 -6.775,-4.853 -11.423,-7.387 -13.582,-7.396 -1.497,0 -2.095,1.074 -5.168,9.406 -3.009,8.208 -9.879,24.782 -12.432,30.007 -1.102,2.267 -2.001,4.199 -2.001,4.293 0,0.09 0.646,-0.08 1.418,-0.37 2.065,-0.78 5.295,-0.66 7.059,0.265 1.466,0.761 1.513,0.747 0.946,-0.303 -0.457,-0.862 -0.284,-1.763 0.803,-4.137 2.395,-5.249 3.813,-3.371 1.86,2.466 -1.245,3.71 -1.245,3.769 -0.205,5.547 0.74,1.291 1.292,1.691 1.938,1.417 0.504,-0.211 2.221,-0.506 3.829,-0.657 2.379,-0.224 3.45,0 5.94,1.213 1.67,0.818 3.718,2.286 4.538,3.265 2.142,2.518 4.096,7.046 4.49,10.35 0.189,1.552 0.363,2.822 0.41,2.822 0,0 1.906,-0.507 4.144,-1.126 z m 306.903,-1.105 c 0,-1.317 -3.577,-6.741 -5.783,-8.778 -2.6,-2.39 -5.2,-3.294 -6.901,-2.39 -1.119,0.605 -4.743,8.765 -4.065,9.183 0.551,0.34 9.312,1.914 12.022,2.16 4.364,0.395 4.727,0.383 4.727,-0.175 z m -336.856,-3.744 c 0,-0.23 -0.237,-1.292 -0.52,-2.362 -0.284,-1.071 -0.788,-3.036 -1.135,-4.37 -0.583,-2.244 -0.756,-2.402 -2.158,-2.12 -1.954,0.393 -14.417,7.727 -13.598,8.003 2.143,0.715 17.427,1.461 17.411,0.849 z m 307.628,-1.851 c 0.409,-0.414 -1.277,-5.408 -1.986,-5.839 -1.402,-0.876 -4.238,2.651 -5.199,6.491 l -0.347,1.442 3.608,-0.886 c 1.986,-0.486 3.75,-1.03 3.924,-1.208 z m -65.263,-3.67 1.386,-0.279 -1.922,-1.616 c -1.056,-0.889 -2.316,-1.617 -2.789,-1.617 -0.709,0 -1.907,1.721 -3.167,4.505 0,0.184 1.024,0.09 2.474,-0.189 1.449,-0.288 3.246,-0.651 4.018,-0.804 z m -16.529,-2.908 c 0.63,-0.599 -2.694,-4.919 -4.758,-6.178 -3.325,-2.031 -5.105,-1.036 -7.359,4.114 l -1.418,3.264 6.555,-0.397 c 3.593,-0.219 6.744,-0.58 6.98,-0.803 z m 23.257,-4.355 c 1.402,-3.645 2.757,-10.231 3.308,-16.129 0.331,-3.496 0.489,-6.461 0.363,-6.591 -0.158,-0.126 -1.765,0.785 -3.624,2.03 -8.839,5.907 -23.43,9.41 -32.537,7.821 -3.845,-0.666 -6.476,-1.602 -6.476,-2.291 0,-0.214 2.127,-0.564 4.758,-0.776 6.571,-0.535 12.495,-2.127 17.742,-4.771 4.128,-2.074 10.336,-6.714 7.784,-5.808 -0.615,0.217 -3.813,1.366 -7.138,2.554 -6.838,2.452 -15.646,4.341 -28.157,6.039 -8.87,1.204 -10.036,1.653 -10.777,4.165 -0.299,1.025 0,1.112 3.136,1.134 3.828,0.03 5.877,0.872 9.737,4.023 l 2.364,1.936 3.261,-1.462 c 5.798,-2.601 10.62,-1.582 15.221,3.213 2.3,2.414 2.505,2.507 4.333,1.985 4.207,-1.205 8.886,-0.211 13.03,2.765 2.789,2.014 2.947,2.02 3.672,0.163 z m -8.399,-6.13 c 0,-1.167 3.672,-9.017 4.223,-9.017 0.646,0 -0.236,4.684 -1.402,7.399 -1.103,2.584 -2.821,3.567 -2.821,1.618 z m -37.248,4.88 c 0,-0.304 -0.898,-1.555 -2.001,-2.779 -2.867,-3.159 -4.932,-3.052 -9.627,0.502 l -1.906,1.442 5.231,0.618 c 7.09,0.833 8.303,0.866 8.303,0.217 z m -25.021,-9.703 c 1.529,-2.28 2.789,-4.244 2.789,-4.367 0,-0.126 -0.914,-0.197 -2.048,-0.164 -1.954,0.06 -2.08,0.181 -2.679,2.56 -0.961,3.772 -1.386,6.114 -1.119,6.114 0.158,0 1.513,-1.864 3.057,-4.143 z m -111.334,-16.783 c 2.836,-1.177 2.552,-1.623 -1.119,-1.763 -4.239,-0.161 -13.046,-1.121 -14.543,-1.584 -1.923,-0.599 0,1.116 2.726,2.508 4.459,2.233 8.886,2.52 12.936,0.839 z m 133.031,-2.685 c 26.045,-3.331 46.812,-10.793 65.956,-23.701 4.459,-3.013 10.935,-8.263 10.604,-8.598 -0.158,-0.126 -4.38,2.117 -9.47,4.976 -25.556,14.357 -51.003,21.915 -77.3,22.952 l -9.139,0.361 -0.552,2.776 -0.551,2.776 7.027,-0.362 c 3.861,-0.199 9.895,-0.73 13.425,-1.18 z m -110.894,-14.528 c 2.301,-0.578 3.656,-1.221 3.829,-1.805 0.378,-1.404 -0.425,-5.692 -1.056,-5.564 -0.819,0.167 -10.21,7.361 -10.257,7.85 0,0.706 3.734,0.463 7.484,-0.481 z m -47.537,-1.271 c 0,-0.274 -1.308,-0.807 -2.915,-1.182 -6.665,-1.561 -12.195,-3.649 -18.608,-7.035 -5.137,-2.721 -7.532,-3.663 -9.864,-3.905 -2.032,-0.211 -3.072,-0.11 -3.072,0.289 0,0.83 6.318,5.27 10.336,7.259 1.796,0.896 4.79,2.067 6.618,2.603 6.381,1.859 17.505,3.112 17.505,1.971 z m 34.018,-3.709 c 2.836,-1.138 7.469,-3.369 10.289,-4.957 l 5.137,-2.89 -1.702,-2.31 c -0.93,-1.27 -1.828,-2.308 -1.985,-2.308 -0.174,0 -1.702,1.358 -3.435,3.019 -4.333,4.186 -7.689,6.649 -13.015,9.57 -4.018,2.203 -4.317,2.471 -2.505,2.223 1.119,-0.157 4.38,-1.211 7.216,-2.347 z m 322.155,-49.921 c 7.043,-8.015 12.637,-19.414 14.89,-30.282 0.473,-2.318 0.961,-4.305 1.072,-4.418 0.441,-0.434 1.103,5.358 1.071,9.345 0,5.048 -1.276,10.021 -3.845,15.482 -1.071,2.248 -1.938,4.194 -1.938,4.325 0,0.126 1.387,-0.813 3.104,-2.099 5.783,-4.369 8.572,-10.293 11.109,-23.545 l 0.425,-2.223 0.394,1.667 c 0.221,0.917 0.425,4.481 0.473,7.921 0,3.816 0.283,6.254 0.63,6.254 1.954,0 4.884,-8.922 5.452,-16.568 l 0.394,-5.389 1.229,3.613 c 0.677,1.987 1.496,4.952 1.843,6.589 l 0.63,2.977 2.474,-2.42 c 4.002,-3.91 5.735,-8.109 6.224,-14.98 l 0.41,-5.784 0.945,3.019 c 0.52,1.661 0.961,3.537 0.961,4.169 0,2.811 0.93,2.726 3.325,-0.312 3.009,-3.797 9.769,-14.086 12.463,-18.966 l 2.08,-3.752 h -10.462 c -23.304,0 -45.883,-4.41 -62.837,-12.242 -6.681,-3.087 -16.465,-9.084 -21.492,-13.177 -0.882,-0.716 -1.701,-1.196 -1.827,-1.069 -0.158,0.126 0.409,1.7 1.213,3.497 2.71,6.118 11.234,29.368 13.519,36.893 1.245,4.128 3.025,10.757 3.955,14.731 0.914,3.974 2.852,10.182 4.301,13.796 3.041,7.606 2.71,7.628 6.586,-0.455 3.64,-7.576 6.319,-19.223 6.382,-27.779 0,-2.718 0,-2.754 0.803,-1.353 2.647,4.869 3.908,20.929 2.253,28.801 -1.638,7.733 -5.845,15.927 -11.155,21.652 -2.537,2.748 -3.041,3.62 -3.041,5.34 v 2.058 l 2.174,-1.717 c 1.198,-0.946 2.915,-2.562 3.813,-3.593 z m 14.118,-89.139 c 7.406,-6.246 10.447,-11.636 22.484,-39.846 2.852,-6.708 5.106,-12.282 5.011,-12.389 -0.158,-0.111 -4.806,-0.347 -10.415,-0.533 -10.777,-0.356 -19.239,0.235 -27.715,1.935 l -4.712,0.945 -2.521,4.497 c -4.679,8.365 -8.729,12.69 -18.907,20.205 -2.6,1.917 -4.79,3.665 -4.885,3.884 -0.157,0.423 5.105,5.043 5.736,5.043 0.22,0 2.426,-1.223 4.916,-2.718 10.84,-6.515 26.061,-13.112 24.532,-10.631 -0.488,0.782 -9.753,7.155 -15.016,10.321 -2.442,1.471 -5.782,3.526 -7.405,4.566 l -2.962,1.889 1.812,1.344 c 1.008,0.739 2.143,1.343 2.536,1.343 0.379,0 4.853,-2.939 9.911,-6.531 5.074,-3.593 12.495,-8.844 16.481,-11.673 4.003,-2.828 7.674,-5.135 8.178,-5.125 1.402,0.03 -6.649,7.517 -18.687,17.406 -5.877,4.837 -10.699,9.005 -10.699,9.263 0,0.503 5.641,3.886 6.476,3.886 0.284,0 6.618,-4.753 14.102,-10.56 17.521,-13.615 18.987,-13.905 7.075,-1.39 -3.199,3.362 -8.131,8.107 -10.951,10.541 l -5.136,4.427 3.529,1.228 c 1.938,0.674 3.655,1.246 3.813,1.27 0.158,0.03 1.702,-1.146 3.419,-2.597 z m -27.889,-29.775 c 0,-1.296 2.616,-4.123 7.106,-7.697 7.107,-5.64 15.268,-8.778 22.894,-8.795 4.207,0 3.892,0.548 -1.087,1.883 -6.539,1.755 -11.849,4.361 -19.648,9.645 -8.603,5.833 -9.265,6.181 -9.265,4.964 z m 45.867,-18.723 c 0.189,-0.306 0.457,-0.556 0.583,-0.556 0.158,0 0.252,0.25 0.252,0.556 0,0.306 -0.268,0.555 -0.598,0.555 -0.316,0 -0.426,-0.249 -0.237,-0.555 z m 4.443,-1.112 c 0.19,-0.306 0.583,-0.557 0.867,-0.557 0.284,0 0.52,0.251 0.52,0.557 0,0.305 -0.378,0.556 -0.867,0.556 -0.472,0 -0.709,-0.251 -0.52,-0.556 z m -406.278,16.536 c -6.555,-8.003 -9.737,-13.596 -12.211,-21.451 -1.859,-5.899 -4.065,-16.842 -4.538,-22.636 -0.315,-3.8 -0.236,-4.627 0.567,-5.424 1.308,-1.313 1.844,-0.769 2.238,2.276 1.575,12.355 3.23,19.311 6.68,28.241 2.978,7.72 7.894,17.466 8.824,17.466 0.362,0 1.087,-0.73 1.607,-1.623 0.536,-0.892 2.08,-2.991 3.451,-4.664 l 2.473,-3.041 -4.49,-9.649 c -8.02,-17.29 -11.849,-27.12 -11.487,-29.507 0.158,-0.903 1.655,1.599 5.295,8.741 4.9,9.632 12.888,23.186 14.117,23.941 0.315,0.2 0.851,0.1 1.182,-0.238 0.441,-0.434 0,-1.828 -1.434,-4.953 -3.34,-7.109 -2.426,-7.802 3.041,-2.333 l 2.647,2.653 2.175,-2.885 2.19,-2.885 -2.348,-2.93 c -1.276,-1.614 -3.167,-4.606 -4.191,-6.651 -1.875,-3.785 -2.899,-9 -1.749,-9 1.166,0 4.601,3.523 7.957,8.139 4.837,6.648 5.199,6.401 4.349,-2.967 -0.709,-7.812 -1.844,-13.509 -3.656,-18.332 -1.623,-4.303 -1.686,-5.223 -0.236,-3.383 2.19,2.787 5.562,9.725 7.437,15.331 1.056,3.154 2.032,5.85 2.174,5.991 0.158,0.141 1.198,-1.122 2.348,-2.804 2.08,-2.998 2.111,-3.126 1.765,-6.841 -0.82,-8.787 -3.026,-11.652 -15.725,-20.376 -12.558,-8.627 -19.79,-14.386 -32.096,-25.56 -2.647,-2.412 -4.916,-4.289 -5.042,-4.168 -0.236,0.24 -2.001,9.38 -3.75,19.395 -1.591,9.209 -2.001,29.285 -0.804,39.58 1.686,14.537 4.822,26.346 9.265,34.874 3.34,6.425 7.043,9.383 11.865,9.455 l 1.591,0.03 z m 4.16,-38.802 c -1.639,-2.269 -2.206,-3.682 -1.245,-3.083 0.867,0.537 3.592,4.801 3.277,5.122 -0.173,0.177 -1.087,-0.742 -2.032,-2.039 z m -4.491,-11.464 c -1.796,-2.036 -5.546,-7.612 -5.546,-8.23 0,-1.085 2.395,1.322 4.616,4.625 3.861,5.745 4.286,7.44 0.93,3.605 z m -16.324,-10.321 c -0.173,-0.688 -0.33,-2.831 -0.33,-4.763 0,-3.455 0,-3.507 1.433,-3.334 1.403,0.172 1.45,0.293 1.623,4.762 0.174,4.468 0.158,4.585 -1.103,4.585 -0.866,0 -1.386,-0.411 -1.623,-1.25 z m -1.102,-16.646 c -0.19,-0.705 -0.347,-2.343 -0.347,-3.643 0,-1.979 0.173,-2.362 1.087,-2.362 0.788,0 1.245,0.575 1.639,2.085 1.103,4.092 1.024,4.846 -0.583,5.032 -1.119,0.126 -1.529,-0.126 -1.796,-1.112 z m 0.756,-13.555 c 0,-1.742 1.308,-1.551 1.575,0.228 0.158,0.802 -0.157,1.207 -0.709,1.207 -0.567,0 -0.866,-0.501 -0.866,-1.435 z m 361.688,86.51 c 3.907,-1.771 7.09,-5.196 9.517,-10.205 2.852,-5.92 9.532,-26.211 14.858,-45.131 4.79,-17.063 9.58,-31.701 13.219,-40.46 l 2.49,-5.997 -3.419,0.36 c -15.946,1.679 -31.576,6.178 -48.451,13.949 -12.574,5.795 -11.423,4.965 -12.81,9.241 -0.662,2.075 -1.056,3.698 -0.867,3.607 0.189,-0.09 3.435,-1.746 7.217,-3.675 12.006,-6.116 27.195,-11.793 31.434,-11.748 l 1.717,0.02 -1.213,1.013 c -0.677,0.56 -5.168,2.709 -10.005,4.779 -9.596,4.11 -19.538,8.926 -26.77,12.977 l -4.633,2.594 -3.072,6.115 c -3.829,7.618 -7.658,13.501 -13.141,20.233 -2.348,2.875 -4.254,5.398 -4.254,5.607 0,0.21 1.339,1.856 2.978,3.657 l 2.978,3.276 4.916,-4.158 c 10.667,-9.027 13.219,-11.091 13.456,-10.858 0.299,0.295 -10.872,14.492 -12.889,16.385 -1.859,1.743 -1.812,2.337 0.315,3.905 l 1.749,1.29 0.882,-1.125 c 3.073,-3.874 15.851,-17.891 16.56,-18.161 1.45,-0.559 -4.585,9.051 -10.998,17.528 l -3.198,4.231 2.221,2.161 c 1.229,1.191 3.136,3.352 4.239,4.804 1.119,1.453 2.19,2.641 2.379,2.641 0.331,0 3.277,-2.976 15.835,-16.032 6.917,-7.176 11.928,-11.594 11.928,-10.497 0,2.226 -11.219,17.039 -22.847,30.142 -0.93,1.054 -0.93,1.182 0,2.379 l 0.961,1.266 5.263,-3.713 c 2.899,-2.042 8.272,-6.132 11.943,-9.089 9.092,-7.34 10.699,-8.492 11.439,-8.244 0.993,0.329 -5.514,8.57 -10.698,13.531 -4.617,4.431 -11.881,10.262 -12.779,10.262 -1.071,0 -0.362,1.059 1.056,1.578 2.6,0.947 7.973,0.724 10.525,-0.437 z m -12.054,-43.941 c 1.497,-2.86 8.319,-12.646 11.471,-16.441 7.579,-9.141 10.446,-12.413 10.667,-12.192 0.977,0.98 -16.686,24.638 -21.586,28.91 l -1.277,1.112 z m -5.231,-7.458 c 0.189,-0.484 0.583,-0.881 0.882,-0.881 0.741,0 0.284,1.264 -0.551,1.541 -0.41,0.142 -0.536,-0.126 -0.331,-0.66 z m 7.484,-9.496 c 0,-0.897 7.091,-8.342 7.516,-7.918 0.221,0.211 -1.387,2.204 -3.577,4.429 -2.174,2.225 -3.939,3.794 -3.939,3.489 z m 32.774,-31.121 c -1.103,-1.323 -0.394,-2.073 4.522,-4.81 4.963,-2.764 7.972,-3.801 7.578,-2.617 -0.189,0.573 -10.635,8.254 -11.234,8.254 -0.157,0 -0.488,-0.371 -0.866,-0.827 z m -78.515,37.786 c 7.422,-1.749 11.897,-5.629 15.914,-13.797 3.404,-6.925 4.617,-12.105 5.625,-23.948 2.08,-24.706 4.601,-45.377 8.336,-68.417 1.969,-12.08 4.459,-24.991 5.026,-25.889 0.488,-0.809 0,-0.683 -8.288,2.276 -8.95,3.177 -25.651,11.269 -35.956,17.408 -9.076,5.414 -22.295,14.338 -34.444,23.247 -13.897,10.202 -12.951,9.315 -12.51,11.634 0.205,1.083 0.583,2.301 0.819,2.707 0.52,0.82 2.994,-0.816 21.429,-14.149 11.896,-8.611 20.846,-14.606 26.865,-17.994 2.237,-1.263 4.175,-2.297 4.301,-2.297 0.158,0 0.236,0.479 0.236,1.064 0,1.287 -1.591,2.54 -13.062,10.326 -8.713,5.908 -20.593,14.818 -32.804,24.593 l -6.114,4.895 0.173,4.991 c 0.158,3.724 -0.157,6.119 -0.992,9.438 -2.017,7.63 -6.003,18.868 -8.903,25.062 -1.528,3.268 -2.773,6.012 -2.773,6.097 0,0.08 2.395,0.954 5.326,1.932 4.475,1.492 5.452,1.656 6.035,1.018 0.378,-0.418 4.411,-6.512 8.949,-13.543 9.312,-14.41 14.859,-22.241 16.088,-22.714 0.456,-0.175 0.835,-0.162 0.835,0.03 0,0.901 -7.107,13.683 -12.606,22.684 -3.371,5.503 -6.806,11.197 -7.657,12.651 l -1.528,2.647 2.584,1.144 c 1.418,0.629 2.836,1.059 3.151,0.955 0.299,-0.11 3.829,-6.31 7.815,-13.795 14.89,-27.923 30.441,-54.862 30.883,-53.511 0.362,1.093 -9.076,21.031 -14.418,30.455 -5.64,9.947 -18.23,36.651 -18.23,38.676 0,0.589 12.952,7.181 14.118,7.181 1.182,0 5.499,-6.901 19.79,-31.684 5.893,-10.212 8.524,-14.186 7.547,-11.395 -3.876,11.168 -14.306,34.27 -19.112,42.369 l -1.733,2.904 1.213,0.847 c 0.677,0.468 1.544,0.85 1.938,0.85 1.733,0 16.245,-15.024 27.621,-28.608 3.041,-3.628 5.641,-6.296 5.751,-5.929 0.284,0.843 -2.868,7.5 -5.909,12.523 -3.482,5.717 -10.84,14.881 -16.371,20.37 -3.151,3.114 -4.648,4.968 -4.175,5.154 1.418,0.571 5.783,0.353 9.217,-0.458 z m -22.61,-69.059 c 2.442,-4.043 7.926,-11.808 8.162,-11.562 0.315,0.309 -4.333,8.086 -6.728,11.263 -2.19,2.915 -3.12,3.11 -1.434,0.299 z m 24.218,-41.642 c -0.914,-0.922 -0.158,-1.942 2.426,-3.254 1.544,-0.78 3.041,-1.27 3.34,-1.087 1.135,0.698 0.442,1.711 -2.19,3.182 -2.978,1.677 -3.041,1.694 -3.576,1.159 z m 14.086,-9.383 c 0,-1.144 2.411,-3.342 5.83,-5.312 5.026,-2.89 4.411,-1.519 -1.56,3.471 -3.404,2.86 -4.27,3.232 -4.27,1.841 z m -237.654,110.63 c 6.177,-1.787 10.951,-3.467 11.534,-4.054 0.614,-0.604 -1.245,-13.14 -4.034,-27.281 -2.489,-12.63 -3.324,-20.072 -2.237,-20.072 1.481,0 4.727,10.018 9.8,30.295 1.765,7.03 3.404,13.011 3.64,13.289 0.268,0.296 0.819,0.201 1.339,-0.226 0.709,-0.598 0.82,-1.536 0.552,-5.229 -0.174,-2.475 -0.158,-6.251 0.157,-8.39 0.473,-3.82 0.489,-3.861 1.198,-2.224 0.41,0.917 1.544,4.294 2.521,7.504 1.276,4.11 2.032,5.782 2.568,5.655 2.08,-0.49 11.061,-4.831 11.061,-5.345 0,-0.323 -1.386,-4.008 -3.072,-8.189 -3.089,-7.621 -5.342,-15.373 -6.098,-20.957 -0.489,-3.632 0,-3.482 2.994,0.939 2.836,4.194 6.554,11.737 9.564,19.417 1.355,3.438 2.694,6.252 2.993,6.253 0.284,0 1.576,-0.392 2.837,-0.876 l 2.3,-0.879 0.362,-4.207 c 0.19,-2.315 0.347,-13.659 0.347,-25.213 0,-20.43 0.331,-24.394 1.623,-19.559 0.851,3.192 1.67,7.436 1.844,9.605 0.157,1.518 0.362,0.906 1.118,-2.779 0.536,-2.6 1.891,-7.919 2.994,-11.822 1.812,-6.322 1.938,-7.202 1.213,-8.059 -1.276,-1.496 -9.28,-14.569 -14.244,-23.255 -8.603,-15.052 -18.403,-34.352 -22.689,-44.654 -0.536,-1.295 -0.74,-1.112 -4.727,4.169 -22.122,29.284 -36.633,61.537 -40.856,90.779 -1.276,8.816 -1.292,22.221 0,28.518 2.789,13.936 8.115,23.956 14.417,27.075 2.978,1.47 3.167,1.466 9.013,-0.228 z m -10.62,-7.182 c -3.781,-3.236 -6.302,-10.149 -7.437,-20.479 -1.213,-10.878 0.82,-25.602 6.082,-44.034 4.16,-14.597 8.335,-25.292 9.864,-25.292 0.41,0 0.74,0.189 0.74,0.418 0,0.23 -1.26,5.294 -2.788,11.256 -3.498,13.538 -7.422,30.777 -8.682,38.075 -1.387,8.045 -1.387,23.279 0,27.769 1.497,4.856 3.466,8.439 6.318,11.493 l 2.537,2.705 h -2.206 c -1.702,0 -2.694,-0.431 -4.428,-1.911 z m 28.85,-28.938 c -0.882,-2.195 -3.293,-10.692 -3.797,-13.352 -0.551,-2.972 0.536,-2.074 1.891,1.55 2.174,5.838 3.97,16.935 1.906,11.802 z m -14.054,-25.904 c -0.331,-1.254 -0.489,-2.401 -0.347,-2.549 0.362,-0.348 1.229,1.353 1.686,3.299 0.599,2.471 -0.662,1.77 -1.339,-0.75 z m 5.719,-3.557 c -2.19,-7.091 -2.978,-11.837 -1.859,-11.146 0.284,0.173 1.166,3.081 1.985,6.464 1.749,7.311 1.655,10.502 -0.157,4.682 z m -7.374,-46.233 c 0,-0.863 1.308,-4.322 2.899,-7.684 3.309,-6.977 3.136,-6.657 3.467,-6.328 0.157,0.142 -0.82,3.616 -2.112,7.733 -1.701,5.369 -2.631,7.538 -3.308,7.667 -0.709,0.142 -0.946,-0.215 -0.946,-1.388 z m 136.907,89.512 c 4.412,-2.239 9.848,-8.015 12.212,-12.985 2.773,-5.801 3.403,-9.698 3.025,-18.51 -0.362,-8.772 -1.844,-17.072 -11.187,-62.922 -2.474,-12.153 -5.011,-27.351 -6.208,-37.349 l -0.961,-7.889 -3.388,2.608 c -1.859,1.435 -6.602,5.735 -10.525,9.558 -27.842,27.064 -48.546,61.221 -54.565,90.047 -1.26,6.015 -1.654,14.124 -0.866,17.909 1.843,8.791 6.57,13.61 14.385,14.647 1.576,0.208 2.742,0.585 2.584,0.837 -0.33,0.534 2.206,1.041 6.098,1.221 l 2.742,0.126 3.167,-15.624 c 3.986,-19.688 7.027,-30.75 8.24,-30 0.615,0.387 -0.803,12.055 -2.71,22.279 -1.796,9.547 -3.308,19.615 -3.324,22.094 0,1.478 0,1.53 2.946,1.53 h 2.962 l 0.678,-11.813 c 0.599,-10.596 1.654,-18.933 2.584,-20.439 0.173,-0.299 0.725,-0.543 1.213,-0.543 0.741,0 0.82,0.586 0.52,4.028 -0.725,8.561 -1.055,20.336 -0.662,24.404 0.457,4.892 -0.157,4.535 8.43,5.236 l 4.522,0.369 0.394,-3.818 c 1.576,-14.871 7.61,-41.055 10.667,-46.34 0.772,-1.331 0.804,-1.286 0.52,1.113 -0.599,5.023 -2.6,21.685 -3.955,32.795 -1.875,15.556 -1.796,20.663 0.284,16.257 3.671,-7.826 7.09,-16.07 15.284,-36.963 1.764,-4.509 3.434,-8.199 3.702,-8.199 1.639,0 -1.229,14.589 -5.751,29.182 -1.402,4.538 -4.018,11.892 -6.287,17.649 -0.504,1.284 -0.189,1.237 3.23,-0.495 z m -66.381,-12.099 c -4.223,-4.218 -3.404,-13.617 2.852,-32.761 3.056,-9.34 8.571,-21.807 13.645,-30.832 7.421,-13.202 15.189,-25.117 16.371,-25.117 0.299,0 -2.821,6.69 -6.902,14.869 -19.049,38.093 -23.13,48.256 -24.028,59.893 -0.457,5.975 0.425,9.681 2.931,12.339 1.039,1.103 1.78,2.121 1.638,2.263 -0.157,0.142 -1.339,0.38 -2.663,0.528 -2.032,0.23 -2.615,0.05 -3.844,-1.182 z m 36.539,-29.551 c -1.04,-5.996 2.994,-36.925 4.821,-36.925 0.331,0 0.426,0.95 0.221,2.426 -0.189,1.335 -1.229,9.902 -2.332,19.039 -1.087,9.135 -2.064,16.861 -2.159,17.166 -0.157,0.306 -0.346,-0.461 -0.551,-1.706 z m -3.309,-20.805 c 0.189,-1.377 0.583,-2.877 0.867,-3.335 0.331,-0.549 0.394,0 0.173,1.613 -0.173,1.347 -0.567,2.847 -0.867,3.336 -0.362,0.606 -0.425,0.09 -0.173,-1.614 z m 7.973,-21.613 c 0,-0.306 0.252,-0.71 0.567,-0.9 0.299,-0.189 0.551,-0.09 0.551,0.213 0,0.306 -0.252,0.711 -0.551,0.9 -0.315,0.189 -0.567,0.09 -0.567,-0.213 z m -1.103,-29.4 c 0,-0.758 8.839,-9.252 9.233,-8.866 0.205,0.205 -1.591,2.379 -3.971,4.834 -4.049,4.163 -5.262,5.09 -5.262,4.032 z m 13.33,-14.823 c 0,-0.476 0.252,-0.867 0.567,-0.867 0.299,0 0.551,0.236 0.551,0.523 0,0.289 -0.252,0.678 -0.551,0.867 -0.315,0.189 -0.567,-0.05 -0.567,-0.523 z m -67.012,127.784 c 1.087,-0.205 1.985,-0.468 1.985,-0.585 0,-0.11 -0.819,-1.282 -1.812,-2.592 -0.993,-1.309 -2.222,-3 -2.741,-3.756 -0.93,-1.346 -0.946,-1.273 -0.977,3.27 0,3.805 0.157,4.589 0.756,4.34 0.441,-0.168 1.702,-0.472 2.789,-0.677 z" id="path612" /></g></svg>